<svg xmlns="http://www.w3.org/2000/svg" width="24" height="25" viewBox="0 0 24 25" fill="none">
  <path d="M20.4683 9.25797C20.3755 9.3148 18.1672 10.514 18.1672 13.1728C18.2712 16.2051 20.954 17.2685 21 17.2685C20.954 17.3253 20.595 18.7171 19.5315 20.176C18.6876 21.4327 17.7508 22.6998 16.3284 22.6998C14.9753 22.6998 14.4896 21.8622 12.9284 21.8622C11.2517 21.8622 10.7773 22.6998 9.49367 22.6998C8.07122 22.6998 7.06509 21.3648 6.17512 20.1199C5.0189 18.4905 4.03616 15.9335 4.00146 13.4783C3.97808 12.1773 4.23301 10.8984 4.88013 9.81218C5.79348 8.29568 7.4241 7.26624 9.20481 7.23229C10.5692 7.18727 11.7835 8.14883 12.6161 8.14883C13.4141 8.14883 14.9059 7.23229 16.5939 7.23229C17.3224 7.23303 19.2653 7.44777 20.4683 9.25797ZM12.5007 6.97253C12.2579 5.78442 12.9284 4.59632 13.5529 3.83844C14.3508 2.9219 15.6111 2.2998 16.6979 2.2998C16.7673 3.48791 16.3276 4.65314 15.5417 5.50179C14.8365 6.41833 13.6223 7.10831 12.5007 6.97253Z" fill="#36394A"/>
</svg>