<svg xmlns="http://www.w3.org/2000/svg" width="24" height="25" viewBox="0 0 24 25" fill="none">
  <path d="M19.7101 9.87472C19.0051 9.87472 18.4201 10.4597 18.4201 11.1797V16.4297C18.4201 17.1497 19.0051 17.7497 19.7101 17.7497C20.4151 17.7497 21.0001 17.1647 21.0001 16.4297V11.1797C21.0001 10.4597 20.4151 9.87472 19.7101 9.87472ZM4.27511 9.87472C3.57011 9.87472 2.98511 10.4597 2.98511 11.1797V16.4297C2.98511 17.1497 3.57011 17.7497 4.27511 17.7497C4.98011 17.7497 5.56511 17.1647 5.56511 16.4297V11.1797C5.56511 10.4597 4.98011 9.87472 4.27511 9.87472ZM6.21011 17.0897C6.21011 17.6147 6.42011 18.1097 6.78011 18.4847C7.14011 18.8597 7.63511 19.0547 8.14511 19.0547V21.6797C8.14511 22.3997 8.73011 22.9997 9.43511 22.9997C10.1401 22.9997 10.7251 22.4147 10.7251 21.6797V19.0547H13.2901V21.6797C13.2901 22.3997 13.8751 22.9997 14.5801 22.9997C15.2851 22.9997 15.8701 22.4147 15.8701 21.6797V19.0547C16.3801 19.0547 16.8751 18.8447 17.2351 18.4847C17.5951 18.1097 17.8051 17.6147 17.8051 17.0897V9.87472H6.21011V17.0897ZM17.7451 8.55472C17.6551 7.68472 17.3701 6.84472 16.9201 6.10972C16.4701 5.35972 15.8701 4.72972 15.1501 4.26472L15.7951 2.94472C15.8701 2.79472 15.8851 2.61472 15.8251 2.44972C15.7986 2.36802 15.7556 2.2926 15.6989 2.22812C15.6421 2.16363 15.5728 2.11143 15.4951 2.07472C15.4189 2.03649 15.3358 2.01412 15.2507 2.00897C15.1656 2.00381 15.0804 2.01597 15.0001 2.04472C14.8351 2.10472 14.7001 2.22472 14.6251 2.37472L13.9801 3.69472L13.8151 3.61972C12.6301 3.21472 11.3551 3.21472 10.1701 3.61972L10.0051 3.69472L9.36011 2.37472C9.28191 2.22081 9.14771 2.10272 8.98511 2.04472C8.90486 2.01597 8.81961 2.00381 8.73453 2.00897C8.64945 2.01412 8.56629 2.03649 8.49011 2.07472C8.34011 2.14972 8.22011 2.28472 8.16011 2.44972C8.13136 2.52997 8.1192 2.61521 8.12435 2.7003C8.12951 2.78538 8.15188 2.86853 8.19011 2.94472L8.83511 4.26472C8.11511 4.74472 7.51511 5.37472 7.06511 6.10972C6.61511 6.85972 6.33011 7.68472 6.24011 8.55472V9.21472H17.7751V8.55472H17.7451ZM10.0651 7.24972C9.90011 7.24972 9.73511 7.17472 9.61511 7.05472C9.49113 6.93164 9.421 6.76442 9.42011 6.58972C9.42011 6.40972 9.48011 6.24472 9.61511 6.12472C9.73511 6.00472 9.90011 5.92972 10.0651 5.92972C10.2301 5.92972 10.3951 6.00472 10.5151 6.12472C10.6351 6.24472 10.7101 6.40972 10.7101 6.58972C10.7101 6.76972 10.6351 6.93472 10.5151 7.05472C10.3951 7.17472 10.2301 7.24972 10.0651 7.24972ZM13.9201 7.24972C13.7551 7.24972 13.5901 7.17472 13.4701 7.05472C13.3461 6.93164 13.276 6.76442 13.2751 6.58972C13.2751 6.40972 13.3351 6.24472 13.4701 6.12472C13.5901 6.00472 13.7551 5.92972 13.9201 5.92972C14.0851 5.92972 14.2501 6.00472 14.3701 6.12472C14.4901 6.24472 14.5651 6.40972 14.5651 6.58972C14.5651 6.76972 14.4901 6.93472 14.3701 7.05472C14.2501 7.17472 14.0851 7.24972 13.9201 7.24972Z" fill="#36394A"/>
</svg>
