<svg xmlns="http://www.w3.org/2000/svg" width="149" height="114" viewBox="0 0 149 114" fill="none">
  <path d="M13.3333 104.167C5 95 0 85 0 68.3333C0 39.1667 20.8333 13.3333 50 0L57.5 10.8333C30 25.8333 24.1667 45 22.5 57.5C26.6667 55 32.5 54.1667 38.3333 55C53.3333 56.6667 65 68.3333 65 84.1667C65 91.6667 61.6667 99.1666 56.6667 105C50.8333 110.833 44.1667 113.333 35.8333 113.333C26.6667 113.333 18.3333 109.167 13.3333 104.167ZM96.6667 104.167C88.3334 95 83.3334 85 83.3334 68.3333C83.3334 39.1667 104.167 13.3333 133.333 0L140.833 10.8333C113.333 25.8333 107.5 45 105.833 57.5C110 55 115.833 54.1667 121.667 55C136.667 56.6667 148.333 68.3333 148.333 84.1667C148.333 91.6667 145 99.1666 140 105C135 110.833 127.5 113.333 119.167 113.333C110 113.333 101.667 109.167 96.6667 104.167Z" fill="#E8E9EA"/>
</svg>