<svg xmlns="http://www.w3.org/2000/svg" width="58" height="24" viewBox="0 0 58 24" fill="none">
  <mask id="mask0_3450_4774" style="mask-type:luminance" maskUnits="userSpaceOnUse" x="0" y="0" width="58" height="24">
    <path d="M57.7276 0H0.392578V24H57.7276V0Z" fill="white"/>
  </mask>
  <g mask="url(#mask0_3450_4774)">
    <mask id="mask1_3450_4774" style="mask-type:luminance" maskUnits="userSpaceOnUse" x="-16" y="-9" width="90" height="46">
      <path d="M-15.6377 -8.83691H73.8182V36.592H-15.6377V-8.83691Z" fill="white"/>
    </mask>
    <g mask="url(#mask1_3450_4774)">
      <path d="M18.7302 23.9861H15.9036C12.2595 19.4075 8.60933 14.821 4.95913 10.2346C4.94543 10.24 4.93183 10.2456 4.91833 10.2511V23.9563C4.75353 24.0048 0.628131 24.0152 0.394531 23.9711V0.026824L3.70043 -0.000976562C7.18373 4.30122 10.6765 8.61502 14.1691 12.9289L14.2152 12.9112V0.00352383H18.7302V23.9861Z" fill="#1B1B1B" fill-opacity="0.55"/>
      <path d="M51.8446 14.1655C51.862 13.1724 51.8236 12.3358 51.6556 11.5096C51.5131 10.8078 51.2856 10.1386 50.8644 9.54942C50.457 8.97962 49.9245 8.58692 49.2396 8.40772C48.8587 8.30812 48.4735 8.32682 48.0897 8.35392C47.252 8.41322 46.5702 8.77052 46.0914 9.47022C45.9359 9.69772 45.8031 9.94442 45.6894 10.1958C45.4313 10.7666 45.2942 11.374 45.1997 11.9906C45.0261 13.1244 44.9722 14.2644 45.0383 15.4097C45.0762 16.0659 45.1582 16.7161 45.3217 17.3539C45.4822 17.9807 45.7108 18.5782 46.0971 19.1052C46.4995 19.654 47.0212 20.0315 47.6893 20.1875C48.1633 20.2983 48.6414 20.2933 49.1199 20.2112C49.6871 20.1137 50.1619 19.8479 50.5497 19.4248C50.86 19.086 51.0804 18.6919 51.2486 18.2675C51.5711 17.4546 51.7153 16.6024 51.7763 15.7359C51.8167 15.1627 51.8271 14.5876 51.8446 14.1655ZM57.7315 14.311C57.7199 14.996 57.7043 15.6787 57.6258 16.3588C57.4875 17.5574 57.1928 18.7115 56.6354 19.7882C55.7447 21.5089 54.3643 22.6695 52.5549 23.3338C51.7383 23.6336 50.8936 23.8083 50.0305 23.9067C49.2282 23.9981 48.4237 24.0153 47.6194 23.9766C46.291 23.9125 45.0039 23.6561 43.7963 23.0758C42.0942 22.2579 40.9022 20.9507 40.1411 19.2367C39.6957 18.2336 39.4347 17.1799 39.3109 16.0912C39.1927 15.0527 39.1883 14.0108 39.2775 12.9715C39.4007 11.5363 39.7551 10.1598 40.4261 8.87702C41.544 6.73962 43.2988 5.42142 45.6326 4.85862C46.9009 4.55262 48.1878 4.50812 49.4834 4.60032C50.4733 4.67072 51.4398 4.85572 52.3715 5.20292C54.5845 6.02772 56.0731 7.58042 56.9299 9.76112C57.3081 10.7236 57.5331 11.7246 57.6288 12.7529C57.677 13.271 57.6982 13.7914 57.7315 14.311Z" fill="#1B1B1B" fill-opacity="0.55"/>
      <path d="M29.6378 12.5632C29.8299 12.5419 30.0727 12.5227 30.313 12.4867C30.8616 12.4044 31.3752 12.2323 31.8164 11.8798C32.174 11.594 32.4419 11.247 32.5741 10.8035C32.8319 9.939 32.5041 8.9182 31.784 8.3398C31.5756 8.1723 31.3425 8.0547 31.0853 7.9831C30.6356 7.858 30.1873 7.8835 29.7449 8.0106C28.5614 8.3506 27.6949 9.0977 27.0629 10.1338C26.9729 10.2812 26.9121 10.4524 26.8675 10.6206C26.7382 11.1071 26.8574 11.5346 27.2319 11.8728C27.3754 12.0024 27.543 12.1131 27.7158 12.2006C28.3034 12.4983 28.9399 12.5634 29.6378 12.5632ZM26.2428 15.6529C26.195 16.61 26.3133 17.5007 26.7374 18.3299C27.227 19.2875 28.0242 19.8365 29.0697 20.0439C29.6397 20.1572 30.2138 20.1307 30.7889 20.1065C32.466 20.0361 34.0328 19.5566 35.5362 18.8377C35.6028 18.8059 35.6703 18.7765 35.7646 18.7335C36.0853 19.8517 36.3791 20.9643 36.6822 22.0849C36.5608 22.1671 36.4518 22.2461 36.3378 22.317C35.4286 22.8841 34.4404 23.2632 33.4081 23.5319C32.2372 23.8366 31.0452 23.9795 29.8355 23.9931C28.8381 24.0041 27.8478 23.9445 26.87 23.7383C25.6084 23.4721 24.4425 22.9929 23.4327 22.1737C22.4254 21.3567 21.7251 20.3185 21.2416 19.125C20.8709 18.2104 20.6502 17.257 20.514 16.2824C20.3929 15.4156 20.3471 14.5453 20.3992 13.6709C20.4816 12.2847 20.7186 10.9304 21.2477 9.6389C21.8356 8.2039 22.7213 6.9978 23.9964 6.0958C24.9963 5.3886 26.1115 4.9594 27.3101 4.7365C27.8629 4.6337 28.4207 4.5605 28.9835 4.5679C30.7853 4.5919 32.4786 5.0179 34.0101 5.9904C35.2772 6.795 36.1657 7.9242 36.7626 9.2924C37.1797 10.2488 37.4211 11.2518 37.5604 12.282C37.7023 13.3313 37.7164 14.386 37.6814 15.4424C37.6799 15.4896 37.6719 15.65 37.6719 15.65C37.2137 15.6563 36.7162 15.6519 36.2458 15.6527C35.7653 15.6534 35.2848 15.6529 34.8043 15.6529H33.3831H31.962H30.5409H29.0992H27.678H26.2428Z" fill="#1B1B1B" fill-opacity="0.55"/>
    </g>
  </g>
</svg>