<svg xmlns="http://www.w3.org/2000/svg" width="216" height="16" viewBox="0 0 216 16" fill="none">
  <mask id="mask0_3450_1403" style="mask-type:luminance" maskUnits="userSpaceOnUse" x="0" y="0" width="216" height="16">
    <path d="M215.469 0H0.46875V16H215.469V0Z" fill="white"/>
  </mask>
  <g mask="url(#mask0_3450_1403)">
    <path d="M2.81314 10.1356C4.56614 12.4917 7.34843 13.2195 9.61613 13.2195C12.1853 13.2195 14.0026 12.4475 14.0026 11.2091C14.0026 9.75368 12.7401 9.62498 8.41793 9.15458C4.65463 8.72838 1.76384 8.02079 1.76384 4.98519C1.76384 2.09429 4.61044 0.0839844 8.97684 0.0839844C12.3984 0.0839844 15.4782 1.29018 16.8693 3.14368L14.7746 5.15398C13.5965 3.63418 11.4133 2.74158 8.80394 2.74158C6.06594 2.74158 4.82354 3.61808 4.82354 4.64738C4.82354 5.76108 5.85284 6.01438 9.74474 6.46478C14.1112 6.97538 17.1789 7.55028 17.1789 10.8674C17.1789 14.1844 13.8338 15.9173 9.48743 15.9173C5.82863 15.9173 2.19404 14.5061 0.694336 12.343L2.81314 10.1356Z" fill="#1B1B1B" fill-opacity="0.55"/>
    <path d="M23.6365 15.6843H20.4883V0.317383H30.0976C33.6077 0.317383 35.9155 1.98998 35.9155 5.17838C35.9155 8.36668 33.6077 10.0353 30.0976 10.0353H23.6365V15.6843ZM29.9248 7.35748C31.7461 7.35748 32.8156 6.55338 32.8156 5.17838C32.8156 3.80328 31.7461 2.99508 29.9248 2.99508H23.6365V7.35748H29.9248Z" fill="#1B1B1B" fill-opacity="0.55"/>
    <path d="M46.7671 0.317383L54.5149 15.6843H51.1134L49.3444 12.11H40.6477L38.8505 15.6843H35.4932L43.237 0.317383H46.7671ZM41.9745 9.43618H48.0055L45.0101 3.40518L41.9745 9.43618Z" fill="#1B1B1B" fill-opacity="0.55"/>
    <path d="M59.9509 15.6843H56.8027V0.317383H66.4518C69.9378 0.317383 72.2938 1.98998 72.2938 5.14218C72.2938 7.49828 70.9228 9.05828 68.7398 9.65738L72.6558 15.6883H69.0378L65.4188 9.97498H59.9509V15.6843ZM66.2838 7.32138C68.1248 7.32138 69.1738 6.51718 69.1738 5.16228C69.1738 3.80728 68.1248 2.97908 66.2838 2.97908H59.9509V7.32138H66.2838Z" fill="#1B1B1B" fill-opacity="0.55"/>
    <path d="M78.8237 7.67918L87.4477 0.317383H91.8707L84.0267 6.82278L92.3657 15.6843H88.2197L81.7147 8.74868L78.8237 11.1611V15.6843H75.6797V0.317383H78.8237V7.67918Z" fill="#1B1B1B" fill-opacity="0.55"/>
    <path d="M109.513 0.0839844C113.533 0.0839844 116.488 1.90128 117.662 4.90878L114.944 6.27579C114.068 4.11669 112.231 2.83008 109.533 2.83008C106.171 2.83008 103.646 4.88458 103.646 7.98858C103.646 11.0925 106.171 13.1471 109.533 13.1471C112.231 13.1471 114.068 11.8605 114.944 9.70139L117.662 11.0684C116.488 14.0879 113.533 15.8932 109.513 15.8932C104.31 15.8932 100.438 12.5359 100.438 7.97648C100.438 3.41708 104.31 0.0839844 109.513 0.0839844Z" fill="#1B1B1B" fill-opacity="0.55"/>
    <path d="M129.947 0.317383L137.695 15.6843H134.293L132.516 12.11H123.827L122.03 15.6843H118.673L126.417 0.317383H129.947ZM125.154 9.43618H131.185L128.19 3.40518L125.154 9.43618Z" fill="#1B1B1B" fill-opacity="0.55"/>
    <path d="M143.129 15.6843H139.985V0.317383H149.591C153.101 0.317383 155.413 1.98998 155.413 5.17838C155.413 8.36668 153.101 10.0353 149.591 10.0353H143.129V15.6843ZM149.422 7.35748C151.239 7.35748 152.309 6.55338 152.309 5.17838C152.309 3.80328 151.239 2.99508 149.422 2.99508H143.129V7.35748H149.422Z" fill="#1B1B1B" fill-opacity="0.55"/>
    <path d="M161.34 15.6843H158.196V0.317383H161.34V15.6843Z" fill="#1B1B1B" fill-opacity="0.55"/>
    <path d="M174.073 3.03528V15.6843H170.905V3.03528H164.122V0.317383H180.856V3.03528H174.073Z" fill="#1B1B1B" fill-opacity="0.55"/>
    <path d="M191.212 0.317383L198.96 15.6843H195.559L193.781 12.11H185.093L183.296 15.6843H179.938L187.682 0.317383H191.212ZM186.42 9.43618H192.451L189.455 3.40518L186.42 9.43618Z" fill="#1B1B1B" fill-opacity="0.55"/>
    <path d="M201.253 0.317383H204.397V12.9503H215.204V15.6843H201.253V0.317383Z" fill="#1B1B1B" fill-opacity="0.55"/>
  </g>
</svg>