<svg xmlns="http://www.w3.org/2000/svg" width="214" height="56" viewBox="0 0 214 56" fill="none">
  <path fill-rule="evenodd" clip-rule="evenodd" d="M72.054 12.5166H41.0879V43.4828H72.054V12.5166ZM50.1736 20.0518L55.5397 30.0641L55.5446 36.5687H57.6086V30.1687L62.9748 20.0518H60.704L57.6074 26.3484L57.6026 26.3557C57.3974 26.6634 57.1931 26.9699 57.0905 27.2776C57.0316 27.5152 56.938 27.6845 56.8495 27.8447C56.7844 27.9625 56.722 28.0754 56.6782 28.2068C56.6264 28.1557 56.6006 28.0783 56.5747 28.0008C56.5489 27.9235 56.523 27.8461 56.4714 27.7945C56.4197 27.6911 56.3939 27.6136 56.368 27.5361C56.3422 27.4585 56.3163 27.381 56.2646 27.2776V27.1742L56.1613 27.0708C56.1216 26.9921 56.0972 26.9283 56.0763 26.8738C56.0427 26.7861 56.0183 26.7223 55.9545 26.6585C55.8511 26.5551 55.7477 26.4518 55.7477 26.3484L52.6511 20.0518H50.1736Z" fill="#1B1B1B" fill-opacity="0.55"/>
  <path d="M84.4511 23.4036C85.7557 23.4036 86.888 23.752 87.7594 24.4498L86.8892 25.496C86.1052 24.9741 85.3225 24.6258 84.3662 24.6258C82.8856 24.6258 81.7545 25.4098 81.1452 26.8904C80.7969 27.7606 80.6234 28.8929 80.6234 30.3735C80.6234 31.5058 80.7957 32.4633 81.0591 33.16C81.7557 34.8141 82.888 35.5969 84.6283 35.5969C85.5859 35.5969 86.4572 35.336 87.24 34.7267L88.1102 35.859C86.9779 36.5556 85.7717 36.9052 84.4548 36.9052C82.888 36.9052 81.5822 36.296 80.5372 34.9901C79.4911 33.7593 79.0566 32.1175 79.0566 30.1163C79.0566 28.115 79.5785 26.547 80.6234 25.2424C81.5809 24.1101 82.888 23.4135 84.4548 23.4135L84.4511 23.4036ZM89.4136 32.0227C89.4136 30.456 89.7619 29.2363 90.5459 28.3673C91.3299 27.4984 92.2874 26.9741 93.5059 26.9741C94.8991 26.9741 96.0289 27.496 96.8142 28.6283C97.4234 29.4984 97.6843 30.7181 97.6843 32.1975C97.6843 33.939 97.1625 35.3323 96.2037 36.2024C95.4828 36.8357 94.5515 37.1772 93.592 37.16C92.2874 37.16 91.3274 36.7243 90.5446 35.7667C89.7606 34.8966 89.4136 33.5907 89.4136 32.0227ZM95.5083 29.4996C95.0726 28.7156 94.4622 28.2689 93.5059 28.2689C92.5496 28.2689 91.9391 28.6172 91.5034 29.315C91.1551 29.8369 91.0677 30.7083 91.0677 31.8381C91.0677 33.3187 91.24 34.3612 91.6769 34.9729C92.1139 35.5846 92.7231 35.9304 93.592 35.9304C94.6382 35.9304 95.3336 35.4086 95.6819 34.4498C95.8542 33.928 95.9428 33.219 95.9428 32.36C96.0289 31.0553 95.8566 30.0953 95.5071 29.4873L95.5083 29.4996ZM100.468 29.672C100.468 28.7144 100.382 27.9304 100.12 27.3335L101.6 26.9852C101.861 27.4209 101.949 27.9427 101.949 28.3784V28.4646C102.297 28.1163 102.645 27.768 103.179 27.507C103.789 27.1587 104.312 26.9852 104.834 26.9852C105.618 26.9852 106.314 27.3335 106.749 27.9427C106.835 28.115 107.01 28.3784 107.097 28.552C108.143 27.5058 109.099 26.9852 110.144 26.9852C110.841 26.9852 111.449 27.2461 111.886 27.6818C112.322 28.2036 112.582 28.8141 112.582 29.5107V36.7353H110.992V29.5969C110.992 28.6393 110.557 28.2036 109.762 28.2036C109.326 28.2036 108.804 28.376 108.368 28.7255C108.196 28.8978 107.846 29.1612 107.411 29.5095L107.238 29.6818V36.7341H105.584V29.9329C105.584 29.3236 105.498 28.8867 105.323 28.7021C105.062 28.4412 104.802 28.3538 104.366 28.3538C103.669 28.3538 102.885 28.7895 101.929 29.6584V36.7969H100.469L100.468 29.672ZM115.27 23.0553L116.837 22.707C117.01 23.4036 117.098 24.1876 117.098 25.144V28.3649C117.968 27.4947 118.927 27.0603 119.885 27.0603C121.017 27.0603 121.974 27.496 122.584 28.3649C123.28 29.235 123.63 30.4547 123.63 31.9341C123.63 33.5009 123.282 34.7206 122.584 35.6781C121.886 36.6356 120.93 37.0713 119.797 37.0713C119.282 37.081 118.773 36.9612 118.317 36.723C117.795 36.4621 117.446 36.2012 117.184 35.8529L116.923 36.899H115.443C115.615 36.4633 115.704 35.6683 115.704 34.4621V25.3175C115.618 24.2713 115.531 23.4886 115.268 23.0529L115.27 23.0553ZM117.794 28.963C117.533 29.1353 117.272 29.3987 117.097 29.6596V34.6467C117.706 35.4307 118.49 35.779 119.435 35.779C120.219 35.779 120.829 35.5181 121.177 34.9089C121.613 34.2123 121.874 33.2547 121.874 31.8615C121.874 30.6307 121.701 29.7716 121.264 29.2498C120.916 28.728 120.307 28.4658 119.435 28.4658C118.914 28.3796 118.303 28.552 117.781 28.9876L117.794 28.963ZM125.892 24.2861C125.892 23.9378 125.978 23.6769 126.24 23.416C126.502 23.155 126.762 23.0676 127.11 23.0676C127.459 23.0676 127.72 23.1538 127.981 23.416C128.242 23.6781 128.329 23.9378 128.329 24.2861C128.329 24.6344 128.243 24.8953 127.981 25.1563C127.718 25.4172 127.459 25.5046 127.11 25.5046C126.762 25.5046 126.501 25.4184 126.24 25.1563C125.979 24.8941 125.892 24.6344 125.892 24.2861ZM126.254 36.8129V27.2375L127.821 26.9766V36.8153L126.254 36.8129ZM131.204 29.672C131.204 28.9753 131.204 28.5396 131.118 28.3673C131.118 28.1064 130.946 27.8455 130.77 27.4098L132.25 26.9741C132.488 27.4307 132.608 27.9398 132.598 28.4547C133.556 27.4972 134.601 26.9741 135.646 26.9741C136.168 26.9741 136.603 27.0603 137.039 27.3224C137.475 27.5846 137.823 27.9316 137.997 28.3686C138.169 28.7169 138.258 29.0652 138.258 29.5009V36.8141H136.777V30.2849C136.777 29.5009 136.691 28.9803 136.429 28.7181C136.293 28.5787 136.13 28.4682 135.951 28.3933C135.771 28.3184 135.578 28.2807 135.384 28.2824C135.035 28.2824 134.514 28.4547 133.99 28.7181C133.507 28.9653 133.066 29.2886 132.685 29.6756V36.8141H131.204V29.672ZM141.739 29.3236L140.955 28.2775C142.26 27.4073 143.567 26.9729 144.96 26.9729C146.354 26.9729 147.225 27.4947 147.659 28.4535C147.832 28.8018 147.832 29.3236 147.832 30.1076V30.6295L147.746 33.7643V34.2C147.746 34.7218 147.746 35.0701 147.832 35.3323C147.918 35.6806 148.18 35.9415 148.528 36.1163L147.744 37.1624C147.048 36.9015 146.612 36.4658 146.44 35.7692C145.57 36.6393 144.611 37.0738 143.653 37.0738C142.696 37.0738 141.912 36.8129 141.315 36.2898C140.793 35.8541 140.531 35.1575 140.531 34.2873C140.508 33.789 140.616 33.2934 140.846 32.8503C141.075 32.4072 141.417 32.0322 141.837 31.763C142.707 31.1538 144.013 30.8929 145.581 30.8929H146.277V30.1963C146.277 29.4123 146.191 28.8916 145.929 28.7156C145.764 28.5373 145.561 28.3979 145.335 28.3076C145.11 28.2174 144.867 28.1785 144.624 28.1938C144.102 28.1938 143.492 28.3661 142.795 28.6295L141.749 29.3261L141.739 29.3236ZM146.355 34.4609L146.441 31.9378H145.657C144.264 31.9378 143.392 32.1987 142.87 32.7218C142.522 33.0701 142.349 33.592 142.349 34.2886C142.349 35.4209 142.87 36.0301 144.003 36.0301C144.497 36.0018 144.975 35.8416 145.386 35.566C145.797 35.2904 146.127 34.9097 146.341 34.4633L146.355 34.4609ZM152.797 27.2338H155.234L154.798 28.4646H152.795V34.6467C152.795 35.1686 152.882 35.5169 153.056 35.779C153.229 35.9513 153.578 36.1273 154.014 36.1273C154.362 36.1273 154.71 36.0412 154.971 35.955L155.144 36.9126C154.622 37.1735 154.098 37.2609 153.49 37.2609C152.009 37.2609 151.314 36.5643 151.314 35.0849V28.4683H150.008V27.2375H151.238V27.0652C151.238 26.8929 151.325 26.195 151.411 25.0627V24.8006L152.978 24.4523C152.805 25.4984 152.805 26.4547 152.805 27.2387L152.797 27.2338ZM156.802 32.0215C156.802 30.4547 157.15 29.235 157.934 28.3661C158.63 27.496 159.675 26.9729 160.894 26.9729C162.287 26.9729 163.417 27.4947 164.202 28.627C164.811 29.4972 165.072 30.7169 165.072 32.1963C165.072 33.9378 164.55 35.331 163.592 36.2012C162.871 36.8345 161.939 37.176 160.98 37.1587C159.675 37.1587 158.715 36.723 157.933 35.7655C157.236 34.8953 156.802 33.5895 156.802 32.0215ZM162.984 29.4984C162.548 28.7144 161.938 28.2676 160.981 28.2676C160.025 28.2676 159.414 28.616 158.979 29.3138C158.63 29.8356 158.543 30.707 158.543 31.8369C158.543 33.3175 158.715 34.36 159.152 34.9716C159.589 35.5833 160.198 35.9292 161.067 35.9292C162.114 35.9292 162.809 35.4073 163.157 34.4486C163.33 33.9267 163.418 33.2178 163.418 32.3587C163.418 31.0541 163.246 30.0941 162.982 29.4861L162.984 29.4984ZM167.944 29.496C167.944 28.6258 167.858 27.9292 167.595 27.4061L169.076 26.9704C169.314 27.427 169.434 27.9361 169.424 28.451V28.6233C170.208 27.5772 171.078 27.0566 172.123 27.0566C172.296 27.0566 172.472 27.0566 172.645 27.1427L172.036 28.7969C171.864 28.7107 171.688 28.7107 171.6 28.7107C171.252 28.7107 170.816 28.7969 170.468 29.059C170.12 29.3212 169.771 29.5809 169.598 29.9292C169.483 30.2657 169.425 30.6187 169.424 30.9741V36.9803H167.944V29.496Z" fill="#1B1B1B" fill-opacity="0.55"/>
</svg>