<svg xmlns="http://www.w3.org/2000/svg" viewBox="0 0 183 50" fill="none">
  <path d="M4.74805 8.43527C11.4513 6.54688 16.8453 4.6942 22.3889 3.65849C24.1496 3.33036 26.7572 4.71875 28.223 6.11384C34.5889 12.1607 39.2544 18.0446 47.3006 25.1786C50.2165 12.7701 61.4736 17.2857 69.1868 12.1027C67.8462 20.5536 66.729 27.4732 65.6721 34.404C64.2219 44.0022 45.9711 49.8505 40.2308 44.1451C28.6006 32.5893 17.1045 20.8862 4.74805 8.43527Z" fill="url(#paint0_linear)"/>
  <path d="M40.2307 44.1429C45.971 49.8482 64.2218 43.9888 65.672 34.4018C66.7221 27.4821 67.8505 20.5625 69.1867 12.1004C61.4735 17.2835 50.2164 12.7701 47.3005 25.1763C46.4112 29.9911 46.105 37.4308 40.2307 44.1429Z" fill="url(#paint1_linear)"/>
  <path d="M94.6059 15.6116L87.6076 34.1384H84.2024L77.2041 15.6116H80.2608L85.9184 31.2009L91.5492 15.6116H94.6059Z" fill="#01042D"/>
  <path d="M107.823 27.558V34.1518H105.09V32.3304C104.017 33.5893 102.248 34.3929 100.237 34.3929C96.5365 34.3929 93.8284 31.5268 93.8284 27.5625C93.8284 23.5982 96.751 20.7321 100.827 20.7321C104.902 20.7321 107.823 23.5938 107.823 27.558ZM105.09 27.558C105.09 24.9866 103.32 23.1116 100.844 23.1116C98.3687 23.1116 96.6348 24.9866 96.6348 27.558C96.6348 30.1295 98.4045 32.0045 100.844 32.0045C103.284 32.0045 105.09 30.1563 105.09 27.558Z" fill="#01042D"/>
  <path d="M110.56 26.433C110.56 23.0312 113 20.7277 116.566 20.7277C120.132 20.7277 122.623 23.0312 122.623 26.433V34.1518H119.864V26.433C119.864 24.3705 118.577 23.0045 116.593 23.0045C114.608 23.0045 113.321 24.3705 113.321 26.433V34.1518H110.56V26.433Z" fill="#01042D"/>
  <path d="M132.118 34.3884C128.042 34.3884 125.066 31.5223 125.066 27.558C125.066 23.5938 128.042 20.7277 132.118 20.7277C135.708 20.7277 138.577 23.1384 138.979 26.433H136.191C136.005 25.4923 135.497 24.6457 134.753 24.0394C134.009 23.433 133.077 23.1049 132.118 23.1116C129.66 23.1116 127.872 24.9866 127.872 27.558C127.872 30.1295 129.642 32.0045 132.118 32.0045C133.082 32.0166 134.02 31.691 134.769 31.0843C135.518 30.4775 136.03 29.628 136.218 28.683H138.982C138.577 32.0045 135.708 34.3884 132.118 34.3884Z" fill="#01042D"/>
  <path d="M154.826 27.558C154.826 31.5223 151.876 34.3884 147.801 34.3884C143.725 34.3884 140.751 31.5223 140.751 27.558C140.751 23.5938 143.727 20.7277 147.801 20.7277C151.874 20.7277 154.826 23.5938 154.826 27.558ZM143.567 27.558C143.567 30.1563 145.334 32.0045 147.774 32.0045C150.214 32.0045 152.019 30.1563 152.019 27.558C152.019 24.9598 150.25 23.1116 147.774 23.1116C145.298 23.1116 143.567 24.9866 143.567 27.558Z" fill="#01042D"/>
  <path d="M157.266 34.1518V26.058C157.266 22.8437 159.465 20.9688 163.272 20.9688V23.2723C161.234 23.2723 160.028 24.317 160.028 26.2991V34.1518H157.266Z" fill="#01042D"/>
  <path d="M178.18 28.4152H166.912C167.261 30.6116 168.977 32.1384 171.256 32.1384C173.133 32.1384 174.741 30.9598 175.251 29.3795H178.039C177.289 32.2991 174.464 34.3884 171.229 34.3884C167.153 34.3884 164.177 31.5223 164.177 27.558C164.177 23.5938 167.153 20.7277 171.229 20.7277C175.304 20.7277 178.227 23.5938 178.254 27.5848C178.256 27.8633 178.231 28.1414 178.18 28.4152ZM167.008 26.2991H175.615C175.168 24.3438 173.443 22.9777 171.271 22.9777C170.285 22.9545 169.321 23.2724 168.543 23.8777C167.764 24.4829 167.219 25.3384 166.999 26.2991H167.008Z" fill="#01042D"/>
  <defs>
    <linearGradient id="paint0_linear" x1="36.9663" y1="46.3884" x2="36.9663" y2="3.61161" gradientUnits="userSpaceOnUse">
      <stop stop-color="#DC85F6"/>
      <stop offset="0.64" stop-color="#8D79F6"/>
      <stop offset="1" stop-color="#6673F6"/>
    </linearGradient>
    <linearGradient id="paint1_linear" x1="54.7076" y1="12.1004" x2="54.7076" y2="46.3884" gradientUnits="userSpaceOnUse">
      <stop stop-color="#44DFFE"/>
      <stop offset="0.13" stop-color="#42D9FD"/>
      <stop offset="0.32" stop-color="#3DC8FC"/>
      <stop offset="0.52" stop-color="#35ACFA"/>
      <stop offset="0.75" stop-color="#2985F6"/>
      <stop offset="0.99" stop-color="#1B53F2"/>
      <stop offset="1" stop-color="#1A51F2"/>
    </linearGradient>
  </defs>
</svg>
